# xmcd
#
# Track frame offsets:
#	151
#	13008
#	24657
#	34468
#	45757
#	58428
#	70209
#	82748
#	94711
#	108320
#	119509
#	131172
#	145247
#	156758
#	167077
#	176902
#	188271
#	199948
#	213217
#	226476
#	238515
#	251596
#	264093
#	276116
#	288491
#
# Disc length: 4013 seconds
#
# Revision: 1
# Processed by: cddbd v1.5.2PL0 Copyright (c) Steve Scherf et al.
# Submitted via: audiograbber 1.83.01
#
DISCID=620fab19
DTITLE=Various Artist - Post War Country Disk 1
DYEAR=2005
DGENRE=Country
TTITLE0=Lefty Frizzell - If You've Got the Money
TTITLE1=Marty Robbins - That's All Right Mama
TTITLE2=Bill Haley - Rock The Joint
TTITLE3=Hank Penny - Bloodshot Eyes
TTITLE4=Merle Travis - Sixteen Tons
TTITLE5=Hank Williams - Cold Cold Heart
TTITLE6=Red Foley - Night Train to Memphis
TTITLE7=Hank Snow - The Golden Rocket
TTITLE8=Maddox Bothers (with Rose Maddox) - Milk Cow Blues
TTITLE9=Chet Atkins - Canned Heat
TTITLE10=Roy Rogers - Yellow Rose of Texas
TTITLE11=Sons of the Pioneers - Riders in the Sky
TTITLE12=Tennessee Ernie Ford - Shotgun Boogie
TTITLE13=Eddy Arnold - One Kiss Too Many
TTITLE14=Floyd Tillman - Slippin' Around
TTITLE15=Kitty Wells - Back Street Affair
TTITLE16=Hank Thompson - Wild Side of Life
TTITLE17=Merle Travis - Divorce Me COD
TTITLE18=Jimmy Wakeley - Mine, All Mine
TTITLE19=Spade Cooley - Oklahoma Stomp
TTITLE20=Pee Wee King - Slow Poke
TTITLE21=Johnny Bond - Mexicali Rose
TTITLE22=Bill Monroe - Kentucky Waltz
TTITLE23=Jack Guthrie - Oklahoma Hills
TTITLE24=Roy Rogers - Don't Fence Me In
EXTD=
EXTT0=
EXTT1=
EXTT2=
EXTT3=
EXTT4=
EXTT5=
EXTT6=
EXTT7=
EXTT8=
EXTT9=
EXTT10=
EXTT11=
EXTT12=
EXTT13=
EXTT14=
EXTT15=
EXTT16=
EXTT17=
EXTT18=
EXTT19=
EXTT20=
EXTT21=
EXTT22=
EXTT23=
EXTT24=
PLAYORDER=
